<svg width="410" height="404" viewBox="0 0 2136 2291" fill="none" xmlns="http://www.w3.org/2000/svg">
<path d="M1193.71 1246.3C1221.21 1314.16 1248.47 1382.16 1276.43 1449.88C1313.96 1540.61 1352.6 1630.92 1389.67 1721.82C1409.35 1769.72 1424.41 1819.38 1434.63 1870.14C1445.37 1922.15 1448.46 1975.46 1443.8 2028.36C1440.8 2066.98 1433.42 2105.13 1421.8 2142.09C1399.85 2208.84 1354.06 2250.04 1286.7 2267.72C1269.92 2272.87 1252.68 2276.4 1235.23 2278.26C1206.27 2280.23 1177.12 2280.6 1148.7 2271.21C1124.64 2263.23 1099.85 2257.46 1077.99 2243.71C1009.25 2200.46 958.377 2142.45 931.704 2064.6C921.392 2034.5 909.156 2004.81 905.948 1972.96C903.734 1949.89 903.167 1926.7 904.252 1903.55C905.307 1879.12 908.469 1854.75 911.585 1830.23C917.818 1780.98 923.73 1731.68 934.775 1683.24C949.257 1619.92 963.769 1556.63 978.312 1493.37C978.312 1492.49 978.312 1491.58 978.908 1489.79C993.482 1433.3 1007.32 1377.62 1016.58 1320.94C1022.17 1286.72 1028.82 1252.44 1025.33 1217.48C1023.91 1196.64 1019.41 1176.12 1012 1156.59C1007.87 1147.97 1003.79 1139.82 999.714 1131.2C995.131 1123.51 991.007 1116.18 986.378 1109.07C979.916 1099.22 979.825 1099.41 968.046 1101.74C938.258 1107.61 908.469 1112.56 877.855 1111.46C855.765 1110.63 834.409 1106.87 815.527 1094.27C794.904 1080.53 790.413 1060.23 803.52 1039.29C809.153 1029.99 816.579 1021.9 825.368 1015.5C834.156 1009.1 844.131 1004.5 854.711 1001.99C866.811 999.265 879.05 997.2 891.375 995.806C889.358 1001.17 886.792 1005.98 885.279 1010.97C880.651 1022.91 876.884 1035.16 874.005 1047.63C868.231 1080.99 892.704 1103.25 925.471 1095.33C946.323 1090.29 971.3 1071.73 969.559 1038.65C968.248 1024.26 964.61 1010.18 958.789 996.952C958.196 994.592 958.291 992.111 959.064 989.804C965.618 989.071 971.621 988.521 977.396 987.65C1026.18 980.087 1074.11 967.811 1120.52 950.994C1120.94 958.423 1120.71 965.874 1119.83 973.263C1116.35 991.591 1110.67 1009.51 1108.28 1027.88C1106.69 1038.52 1107.97 1049.39 1112 1059.37C1116.03 1069.35 1122.66 1078.06 1131.2 1084.61C1146.01 1096.29 1164.55 1102.23 1183.4 1101.33C1182.53 1104.54 1181.7 1107.24 1180.74 1110.49C1179.27 1118.28 1177.94 1125.57 1176.39 1133.4C1175.13 1139.87 1174.41 1146.43 1174.23 1153.01C1174.43 1164.37 1175.22 1175.7 1176.61 1186.97C1178.66 1207.62 1184.45 1227.73 1193.71 1246.3ZM946.232 2049.02C957.626 2082.42 973.671 2114.04 993.894 2142.96C1001.14 2153.04 1009.57 2162.25 1017.54 2171.82C1019.74 2174.53 1022.12 2175.72 1025.56 2173.2C1044.2 2160.05 1064.95 2150.21 1086.93 2144.1C1123.22 2132.92 1159.8 2122.6 1196.64 2113.13C1227.27 2105.35 1258.81 2101.69 1290.41 2102.27C1307.75 2102.3 1325.09 2103.24 1342.33 2105.11C1362.54 2107.63 1382.57 2111.71 1402.51 2115.97C1407.91 2117.11 1409.66 2115.97 1410.8 2111.39C1418.3 2079.78 1423.09 2047.59 1425.1 2015.16C1417.35 2021.72 1410.21 2028.91 1402.19 2034.5C1368.87 2057.87 1330.78 2066.99 1290.87 2068.82C1273.49 2069.51 1256.08 2069.09 1238.76 2067.54C1219.74 2066.14 1200.81 2063.66 1182.07 2060.11C1139.83 2051.55 1099.39 2035.79 1062.5 2013.51C1032.3 1995.86 1004.23 1974.78 978.862 1950.69C961.909 1934.53 947.37 1916.01 935.691 1895.71C932.758 1890.53 929.55 1885.54 925.609 1879.03C918.597 1940.61 919.193 1976.86 946.324 2048.8L946.232 2049.02ZM1018.5 1408.83C1008.42 1450.52 998.324 1492.22 988.211 1533.92L989.953 1534.6C990.594 1533.82 991.282 1533 991.878 1532.18C1007.82 1509.58 1027.17 1489.61 1049.26 1472.98C1085.92 1446.03 1126.8 1432.24 1172.99 1436.04C1203.95 1438.93 1233.57 1450 1258.83 1468.12C1260.21 1468.91 1261.67 1469.55 1263.19 1470.04C1262.97 1468.35 1262.6 1466.68 1262.09 1465.05C1257.5 1453.78 1252.37 1442.6 1247.6 1431.33C1237.15 1406.54 1226.75 1381.75 1215.8 1355.68C1215.47 1359.32 1214.89 1362.93 1214.06 1366.49C1211.08 1376.2 1209.47 1386.79 1204.3 1395.22C1189.31 1419.87 1155.03 1430.96 1125.97 1423.08C1098.11 1415.52 1077.76 1397.46 1060.53 1375.93C1050.13 1362.92 1042.52 1347.66 1034.09 1334.1C1029.14 1357.6 1023.91 1382.66 1018.5 1408.83Z" fill="#C3268A"/>
<path d="M1011.77 1157.46C1019.2 1176.81 1023.68 1197.17 1025.06 1217.85C1028.54 1252.81 1021.9 1287.08 1016.3 1321.31C1007.14 1377.99 993.39 1433.66 978.588 1489.61C963.327 1488.19 949.119 1473.34 946.095 1455.79C941.512 1430.45 946.461 1406.31 955.948 1382.8C961.402 1369.06 967.176 1355.68 971.301 1341.56C975.654 1326.67 971.713 1311.92 966.26 1297.94C953.611 1265.64 932.804 1240.85 899.395 1228.62C890.952 1225.85 882.332 1223.66 873.593 1222.06C869.01 1221.1 865.161 1226.65 864.427 1233.75C862.915 1246.26 868.185 1256.66 873.593 1267.33C883.721 1287.17 894.033 1306.92 898.616 1328.96C903.199 1351 903.199 1371.85 890.733 1391.42C885.032 1400.55 877.173 1408.14 867.847 1413.53C858.521 1418.91 848.014 1421.93 837.251 1422.3C820.84 1423.94 804.282 1421.31 789.197 1414.64C774.111 1407.97 761.013 1397.51 751.184 1384.27C733.906 1362.18 734.09 1337.21 745.043 1312.33C752.971 1294.23 762.458 1276.77 770.707 1258.77C773.431 1252.71 775.165 1246.26 775.84 1239.66C776.756 1229.85 773.319 1224.58 763.374 1222.02C752.401 1219.32 741.228 1217.52 729.965 1216.61C709.623 1215.12 689.265 1219.3 671.166 1228.71C657.09 1235.79 645.853 1247.46 639.315 1261.79C636.666 1269.36 635.895 1277.46 637.07 1285.39C639.573 1311.91 644.716 1338.11 652.422 1363.6C661.221 1395.68 669.7 1427.75 677.262 1460.28C679.78 1474.44 681.463 1488.73 682.303 1503.08C682.303 1515.91 682.303 1527.46 682.303 1539.05C680.953 1571.99 673.396 1604.39 660.03 1634.54C649.829 1659.34 634.92 1681.93 616.126 1701.07C592.02 1725.31 563.147 1741.3 529.05 1745.15C483.817 1750.28 443.304 1738.36 410.399 1705.88C391.42 1686.72 379.525 1661.67 376.669 1634.86C372.819 1605.9 377.494 1577.72 383.818 1549.68C388.401 1529.79 391.884 1509.59 397.567 1490.11C406.962 1458.86 422.865 1430.55 437.484 1401.27C455.816 1364.89 472.314 1327.59 490.325 1290.15C491.079 1288.87 491.591 1287.45 491.837 1285.98C491.837 1285.98 491.837 1285.98 492.204 1285.98C492.634 1285.1 492.942 1284.16 493.12 1283.19C493.143 1282.85 493.272 1282.53 493.487 1282.27C493.928 1281.37 494.267 1280.41 494.495 1279.43C494.495 1279.43 494.495 1279.43 494.862 1279.43C495.3 1278.53 495.608 1277.58 495.779 1276.59C495.779 1276.25 495.91 1275.92 496.145 1275.67C496.581 1274.67 496.918 1273.63 497.153 1272.56C497.16 1272.23 497.292 1271.92 497.52 1271.69C497.998 1270.35 498.336 1268.97 498.528 1267.56C498.528 1267.56 498.528 1267.56 498.941 1267.56C502.057 1258.95 504.899 1250.61 507.511 1242.23C509.573 1235.44 511.315 1228.48 513.194 1221.74C513.203 1221.43 513.335 1221.14 513.56 1220.92C514.073 1218.78 514.425 1216.6 514.614 1214.41C513.744 1205.75 512.873 1197.09 511.91 1187.38C510.673 1185.09 509.756 1182.8 508.336 1182.8C494.587 1179.31 480.334 1176.15 466.311 1172.85C466.311 1172.85 466.311 1172.85 466.311 1172.49C464.596 1172.02 462.85 1171.69 461.086 1171.48C453.616 1169.28 446.192 1166.9 438.721 1164.88C433.084 1163.32 431.526 1164.65 434.139 1170.1C437.941 1178.64 442.21 1186.96 446.925 1195.03C454.578 1208.23 461.636 1221.29 460.399 1237.51C459.573 1245.73 455.928 1253.42 450.081 1259.26C444.234 1265.11 436.545 1268.75 428.318 1269.58C402.929 1271.55 385.926 1249.42 381.343 1230.13C377.814 1216.34 379.769 1201.72 386.797 1189.35C390.904 1181.59 391.939 1172.57 389.698 1164.08C387.456 1155.59 382.101 1148.25 374.698 1143.53C364.397 1137.62 353.675 1132.47 342.618 1128.13C337.531 1125.89 335.056 1128.13 333.956 1133.49C329.963 1153.88 330.938 1174.92 336.798 1194.85C342.526 1215.37 350.134 1235.58 353.617 1256.48C360.033 1294.74 354.625 1331.53 330.702 1363.65C320.492 1377.54 305.406 1387.07 288.468 1390.32C271.53 1393.56 253.991 1390.29 239.365 1381.15C208.43 1362.5 193.536 1334.87 192.024 1298.68C190.74 1267.11 199.86 1238.28 210.676 1209.33C219.48 1187.48 226.365 1164.92 231.253 1141.88C235.286 1119.89 235.47 1096.06 219.842 1077.46C210.676 1066.51 198.486 1058.07 187.487 1048.68C182.904 1044.79 177.954 1041.4 173.188 1037.68C170.301 1035.44 168.147 1035.26 168.238 1039.66C168.238 1046.67 168.513 1053.72 169.063 1060.69C169.98 1072.32 173.188 1084.1 171.951 1095.46C170.548 1105.4 165.602 1114.5 158.024 1121.08C150.445 1127.67 140.744 1131.29 130.704 1131.3C113.014 1131.3 95.5077 1114.89 91.4748 1095.88C88.1292 1080.02 92.758 1066 99.0824 1052.03C104.247 1041.69 108.837 1031.07 112.831 1020.23C117.964 1004.79 114.985 988.841 112.235 973.4C109.944 960.57 105.315 948.198 102.199 935.552C97.5041 914.663 97.3166 893.013 101.649 872.046C104.164 854.868 108.386 837.984 114.252 821.644C120.255 808.041 128.139 795.347 137.67 783.934C146.952 773.033 156.933 762.747 167.551 753.143C173.417 749.798 178.458 746.682 183.545 743.566C183.579 743.748 183.579 743.934 183.545 744.116C176.396 756.075 168.605 767.026 162.372 779.169C156.919 789.661 153.206 801.116 148.624 812.113C146.195 820.269 143.766 828.471 140.604 837.268C139.045 840.962 137.848 844.799 137.029 848.723C134.462 861.828 131.575 874.932 136.341 888.174C143.216 919.332 161.181 943.983 182.812 966.527C177.919 953.189 176.453 938.836 178.55 924.785C178.998 924.747 179.447 924.85 179.833 925.08C180.219 925.31 180.524 925.656 180.704 926.067C182.38 931.042 184.497 935.857 187.028 940.455C190.053 945.037 193.124 944.212 194.819 939.08C196.194 935.14 197.111 931.062 198.669 927.442C199.448 936.01 199.081 944.35 200.227 952.46C203.206 973.537 216.267 989.895 227.725 1006.71C244.819 1031.73 268.971 1048.87 294.681 1064.26C302.472 1068.84 310.675 1072.83 318.97 1077.41C323.003 1079.24 326.715 1080.76 330.702 1082.68C350.363 1091.39 369.611 1099.86 389.089 1107.93C398.621 1111.91 408.474 1115.12 418.603 1118.88C428.731 1122.64 439.684 1126.07 450.316 1129.87C461.682 1137.71 474.743 1139.45 487.254 1142.66C490.206 1142.75 493.152 1142.33 495.962 1141.42C496.44 1141.45 496.892 1141.65 497.245 1141.97C512.552 1149.94 528.959 1152.33 545.916 1154.76C552.24 1155.49 558.014 1155.81 563.697 1156.91C606.364 1164.97 649.123 1172.81 692.614 1174.6C726.161 1175.92 759.8 1176.43 793.438 1176.34C818.14 1176.34 842.934 1175.42 867.544 1173.63C898.616 1171.39 929.642 1168.13 960.623 1164.74C977.9 1162.91 994.674 1159.93 1011.77 1157.46Z" fill="#8DEFD3"/>
<path d="M1193.8 1245.53C1184.44 1227.44 1178.57 1207.77 1176.48 1187.52C1175.09 1176.25 1174.29 1164.92 1174.09 1153.56C1174.18 1146.94 1175.11 1140.35 1176.84 1133.95C1179 1133.4 1180.33 1133.4 1181.66 1133.13C1215.89 1125.43 1250.17 1118.01 1284.36 1109.94C1301.64 1105.87 1318.64 1100.78 1336.24 1095.92C1337.63 1095.5 1338.99 1094.99 1340.32 1094.41C1340.32 1094.41 1340.73 1094.41 1341.23 1094.41C1342.97 1093.95 1344.17 1093.49 1345.36 1093.08H1345.82C1351.4 1091.95 1356.92 1090.55 1362.36 1088.87C1371.98 1085.57 1381.42 1081.81 1390.91 1078.33H1391.28C1392.79 1077.87 1393.89 1077.41 1394.94 1077H1395.31C1396.72 1076.57 1398.08 1076.02 1399.39 1075.35C1408.88 1072.23 1418 1069.35 1427.35 1066.78C1428.61 1066.74 1429.86 1066.53 1431.06 1066.14H1431.47C1432.98 1065.68 1434.04 1065.22 1435.09 1064.81C1435.09 1064.81 1435.09 1064.81 1435.59 1064.81C1458.1 1058.67 1480.09 1052.44 1502.55 1046.16C1504.23 1045.21 1505.98 1044.38 1507.77 1043.69C1534.72 1037.3 1561.72 1030.98 1588.75 1024.72C1600.99 1021.88 1613.37 1019.36 1626.24 1016.7C1650.94 1015.74 1675.05 1014.78 1699.57 1014.23C1702.28 1014.81 1705.05 1015.11 1707.82 1015.14C1719.69 1014.87 1731.56 1014.45 1743.79 1014.5C1745.28 1014.98 1746.82 1015.22 1748.38 1015.23C1772.61 1014.41 1796.82 1013.52 1821.02 1012.58C1822.16 1012.29 1823.27 1011.88 1824.32 1011.34C1824.87 1011.34 1825.1 1011.34 1825.74 1011.34C1826.66 1011.35 1827.58 1011.52 1828.44 1011.84C1840.13 1012.3 1851.36 1012.39 1863.27 1012.48C1867.85 1011.66 1872.02 1010.97 1876.01 1009.92L1917.26 999.014C1917.97 998.726 1918.65 998.357 1919.27 997.914H1919.73C1955.2 987.055 1986 969.276 2009.83 941.143C2025.79 922.516 2034.51 898.77 2034.4 874.246C2034.21 854.879 2030.8 835.678 2024.31 817.429C2007.5 766.113 1972.07 722.956 1925 696.464C1921.34 694.402 1917.94 692.707 1914.65 690.828C1913.46 689.987 1912.38 689.002 1911.44 687.896C1912.71 687.14 1914.11 686.613 1915.56 686.338C1923.54 686.613 1931.56 686.888 1939.48 687.575C1977.8 690.966 2009.92 706.59 2033.3 737.519C2047.55 756.397 2063.68 774.175 2070.42 797.864C2073.31 808.082 2078.85 817.475 2082.06 827.647C2087.7 847.06 2089.7 867.347 2087.97 887.488C2087.51 903.908 2084.67 920.175 2079.54 935.782C2071.2 958.692 2059.37 978.624 2039.62 993.744C2011.79 1015.06 1979.58 1029.92 1945.3 1037.27C1930.64 1040.48 1916.07 1044.05 1901.49 1047.49C1897.78 1047.49 1896.45 1049.32 1895.72 1053.17C1889.07 1088.41 1898.28 1121.22 1910.57 1153.52C1921.79 1183.07 1933.85 1212.35 1944.57 1242.09C1953.52 1266.7 1956.98 1292.98 1954.7 1319.07C1951.4 1356.36 1930.04 1392.38 1885.59 1398.43C1872.49 1400.24 1859.16 1399.21 1846.5 1395.39C1833.85 1391.57 1822.17 1385.05 1812.26 1376.3C1790.17 1357.97 1779.63 1333.77 1777.66 1305.18C1775.6 1275.35 1784.12 1248 1795.26 1221.15C1805.57 1196.22 1816.98 1171.76 1826.75 1146.69C1833.78 1130.65 1835.53 1112.79 1831.74 1095.69C1825.65 1071.78 1812.58 1053.77 1787.38 1045.06C1786.32 1044.46 1785.15 1044.08 1783.94 1043.96H1708C1706.31 1044.18 1704.65 1044.6 1703.05 1045.2L1662.63 1058.44C1656.95 1060.27 1651.08 1061.65 1645.63 1063.89C1631.88 1069.71 1630.32 1081.9 1632.8 1091.39C1637.73 1113.11 1643.93 1134.53 1651.36 1155.53C1667.67 1197.73 1686.19 1239.02 1702.92 1281.04C1716.96 1315.74 1726.13 1352.22 1730.14 1389.45C1737.05 1452.03 1725.32 1515.27 1696.41 1571.21C1683.99 1595.59 1668.68 1618.13 1646.73 1635.36C1612.54 1661.98 1573.4 1661.66 1538.53 1634.49C1506.03 1609.24 1488.11 1574.93 1479.36 1535.61C1473.63 1506.28 1472.16 1476.28 1475.01 1446.54C1478.4 1398.61 1491.51 1352.93 1505.76 1307.43C1515.88 1277.01 1523.54 1245.83 1528.67 1214.18C1530.28 1202.73 1530.92 1191.27 1531.61 1179.59C1532.29 1167.91 1533.07 1155.63 1532.89 1143.67C1533.05 1126.54 1529.03 1109.63 1521.16 1094.41C1515.8 1084.74 1505.99 1081.17 1494.07 1080.39C1485.59 1080.8 1478.26 1081.4 1471.16 1081.54C1450.04 1082.49 1429.25 1087.14 1409.75 1095.28C1402 1098.26 1395.54 1104.45 1388.16 1109.44C1380.1 1113.33 1378.17 1118.6 1380.32 1130.33C1388.25 1144.45 1395.49 1159.02 1404.25 1172.63C1419.19 1195.95 1431.74 1220.14 1434.72 1248.05C1439.31 1290.61 1431.06 1329.19 1394.39 1356.46C1371.48 1373.59 1345.36 1375.97 1319.01 1365.62C1291.51 1354.71 1277.16 1333.09 1273.18 1304.04C1268.87 1272.47 1277.12 1242.78 1285.92 1213.08C1290.09 1199.06 1294.07 1184.95 1297.74 1170.75C1298.68 1166.4 1298.96 1161.94 1298.57 1157.5C1297.88 1146.97 1290.41 1140.92 1279.13 1145.64C1256.22 1155.17 1233.3 1163.51 1210.02 1172.21C1207.2 1173.17 1204.31 1173.87 1201.36 1174.32C1200.22 1174.58 1199.12 1175.01 1198.11 1175.6C1197.78 1175.67 1197.43 1175.67 1197.1 1175.6C1196.09 1175.9 1195.13 1176.35 1194.26 1176.93C1194.26 1176.93 1194.26 1176.93 1193.85 1176.93C1190.41 1180.46 1187.57 1183.99 1184.68 1187.29C1178.4 1194.02 1178.17 1196.77 1183.86 1205.02C1186.97 1212.81 1189.86 1220.69 1193.25 1228.34C1194.55 1231.01 1195.27 1233.91 1195.37 1236.88C1195.46 1239.84 1194.93 1242.78 1193.8 1245.53Z" fill="#8DEFD3"/>
<path d="M1916.48 999.242C1902.73 1002.91 1889.39 1006.57 1875.78 1010.15C1871.6 1011.22 1867.34 1011.96 1863.04 1012.35C1862.81 1012.02 1862.68 1011.63 1862.68 1011.22C1862.68 1010.82 1862.81 1010.43 1863.04 1010.1C1867.62 1007.9 1872.21 1006.12 1876.15 1003.87C1898.28 991.774 1916.94 976.378 1924.27 950.948C1931.01 927.58 1926.56 905.128 1916.89 883.318C1899.2 843.821 1869.92 814.588 1834.4 790.716C1832.92 790.068 1831.38 789.546 1829.82 789.158C1823.86 785.767 1818.36 782.56 1812.67 779.581C1810.87 778.864 1809 778.341 1807.08 778.023C1807.07 780.139 1807.39 782.243 1808.05 784.255C1816.75 801.3 1825.57 818.284 1834.49 835.207C1845.49 856.055 1856.35 876.72 1859.05 900.867C1860.73 914.967 1858.13 929.246 1851.59 941.851C1845.05 954.457 1834.88 964.81 1822.39 971.567C1808.41 979.173 1793.61 980.044 1778.07 979.265C1771.38 976.544 1764.88 973.344 1758.64 969.689C1735.73 953.285 1729.68 929.779 1733.34 903.433C1735.32 889.366 1739.76 875.941 1743.11 861.874C1746.91 846.249 1751.08 830.35 1746.45 814.45C1737.29 782.972 1717.4 762.994 1684.49 754.884C1670.28 751.606 1655.39 752.905 1641.96 758.596C1628.21 760.337 1615.11 761.574 1602.04 763.773C1586.05 766.431 1569.96 769.913 1553.65 772.937C1543.06 774.791 1532.66 777.597 1522.58 781.323C1512.27 785.905 1511.35 795.435 1518.91 803.82C1523.6 808.897 1528.6 813.672 1533.9 818.116C1560.98 841.759 1581.47 869.297 1585.73 906.274C1588.66 931.429 1581.42 952.964 1560.71 968.726C1555.02 972.714 1549.13 976.399 1543.06 979.769C1542.47 979.998 1542.33 980.319 1542.33 980.639C1542.33 980.96 1542.33 980.639 1541.87 980.639C1521.29 986.917 1501.22 988.337 1480.74 980.639C1473.31 975.049 1465.15 970.788 1459.42 964.328C1446.04 949.161 1445.68 930.283 1447.88 911.36C1448.88 902.608 1450.85 893.948 1452.46 884.876C1455.25 875.253 1458.23 866.181 1460.16 856.88C1463.69 839.56 1463.23 823.019 1447.83 810.601C1439.53 803.958 1430.05 796.855 1419.65 799.055C1401.73 802.904 1384.45 809.731 1366.35 815.413C1356.63 818.253 1347.42 820.865 1338.39 823.889C1317.54 830.9 1296.78 838.093 1275.42 845.287C1257.09 850.786 1239.81 856.834 1221.98 861.416C1218.58 862.383 1215.43 864.089 1212.76 866.412C1210.09 868.736 1207.97 871.619 1206.54 874.858C1205.11 878.096 1204.42 881.609 1204.51 885.146C1204.59 888.684 1205.46 892.158 1207.04 895.323C1210.8 902.104 1215.25 908.519 1219.51 915.483C1220.88 917.774 1222.12 919.607 1223.41 921.394C1238.16 941.738 1253.01 962.037 1258.51 987.192C1260.17 996.671 1261.33 1006.23 1261.99 1015.83C1260.62 1023.07 1259.93 1029.94 1258.01 1036.49C1247.33 1072.51 1217.08 1098.63 1183.21 1101.47C1164.36 1102.77 1145.71 1096.96 1130.92 1085.2C1122.38 1078.65 1115.75 1069.94 1111.72 1059.96C1107.69 1049.99 1106.41 1039.12 1108.01 1028.48C1110.34 1010.15 1116.07 992.14 1119.56 973.858C1120.45 966.256 1120.68 958.59 1120.24 950.948C1116.21 933.307 1105.07 922.402 1091.28 913.101C1086.38 910.26 1081.75 907.648 1076.89 905.357C1070.3 902.115 1062.75 901.414 1055.67 903.387C1029.96 910.077 1003.98 915.987 978.128 922.219C968.229 924.602 958.192 926.801 948.477 929.596C946.541 929.977 944.711 930.77 943.109 931.921C941.507 933.072 940.172 934.554 939.194 936.266C938.216 937.979 937.618 939.882 937.44 941.846C937.263 943.81 937.51 945.789 938.165 947.649C943.756 961.716 949.393 975.141 955.214 988.887C955.489 989.62 957.047 989.803 958.009 990.262C957.756 992.649 957.88 995.061 958.376 997.41C964.197 1010.63 967.834 1024.72 969.146 1039.11C971.07 1072.19 945.91 1090.74 925.058 1095.79C892.29 1103.71 867.818 1081.44 873.592 1048.09C876.471 1035.61 880.238 1023.36 884.866 1011.43C886.516 1006.44 888.945 1001.63 891.328 995.943C892.625 992.953 893.757 989.894 894.719 986.779C897.377 977.111 898.569 967.535 890.961 958.738C887.711 954.229 883.333 950.654 878.266 948.37C873.199 946.086 867.62 945.174 862.089 945.725C847.882 947.053 833.767 948.657 819.56 949.848C801.64 951.361 783.538 951.727 765.71 954.43C752.787 956.217 741.788 965.106 743.025 978.807C744.629 996.722 752.191 1013.03 759.753 1029.67C762.044 1040.98 765.985 1051.8 766.077 1062.61C765.382 1075.22 763.526 1087.73 760.532 1100C753.153 1108.16 746.371 1116.31 739.038 1123.92C735.743 1126.72 732.072 1129.05 728.131 1130.84C719.329 1133.92 709.989 1135.16 700.688 1134.49C691.387 1133.82 682.322 1131.25 674.052 1126.94C654.896 1116.68 643.576 1101.33 644.584 1078.69C645.318 1062.93 652.054 1049.19 659.02 1035.44C667.521 1019.88 675.17 1003.86 681.935 987.467C684.868 979.861 682.76 970.33 682.989 961.212C681.248 952.048 677.673 944.946 667.27 943.983C662.876 943.453 658.547 942.486 654.346 941.097C641.468 937.202 628.636 933.033 615.483 928.634C607.829 924.602 600.13 921.532 593.347 917.041C586.565 912.551 579.599 913.513 572.633 915.85C569.545 916.535 566.834 918.371 565.055 920.985C563.275 923.599 562.559 926.793 563.054 929.917C564.429 939.081 567.087 947.878 569.104 957.409C569.516 960.845 569.791 963.732 570.387 966.573C574.97 988.429 576.895 1010.24 568.279 1031.5C558.792 1055.1 542.156 1070.68 516.08 1073.38C507.143 1073.7 498.196 1073.16 489.361 1071.78C456.273 1058.81 441.058 1030.31 451.782 996.768C456.869 981.006 466.218 966.481 474.696 951.91C485.283 933.582 494.219 914.979 491.836 892.344C492.201 877.788 487.932 863.493 479.646 851.519C476.555 847.503 472.842 844.007 468.647 841.163C458.243 835.894 447.336 831.45 436.566 827.097C432.533 825.493 428.088 825.035 423.688 823.614C422.339 822.418 420.787 821.471 419.105 820.819C400.27 815.431 380.848 812.353 361.269 811.655C354.486 811.024 347.657 812.206 341.481 815.08C335.304 817.954 330.003 822.418 326.118 828.013C319.747 836.56 314.595 845.951 310.811 855.917C308.199 862.974 309.07 871.359 308.382 879.744C308.546 884.343 308.944 888.931 309.574 893.49C312.507 909.389 316.265 925.151 318.74 941.097C321.215 957.042 316.769 974.362 300.821 982.335C293.28 985.236 285.417 987.221 277.402 988.246C269.213 988.256 261.16 986.152 254.022 982.139C246.885 978.125 240.904 972.337 236.66 965.336C227.743 950.449 224.489 932.848 227.494 915.758C229.786 899.126 238.218 885.288 248.071 872.092C254.029 864.073 259.3 855.505 264.478 846.937C265.532 845.15 265.67 840.705 264.845 840.293C262.204 838.618 259.007 838.058 255.954 838.735C219.291 856.788 199.63 886.067 198.805 927.351C197.659 931.337 196.743 935.415 195.368 939.356C193.672 944.487 190.785 945.266 187.577 940.73C185.045 936.132 182.929 931.317 181.253 926.343C180.779 925.51 180.035 924.864 179.145 924.51C180.766 911.854 183.215 899.319 186.477 886.983C193.675 863.723 209.104 843.882 229.877 831.175C262.975 810.411 300.372 797.467 339.225 793.327C378.593 788.745 415.622 797.634 451.873 811.655C477.928 821.62 502.637 834.796 525.429 850.877C554.913 871.88 585.883 890.715 618.095 907.236C639.911 918.442 663.755 925.158 688.214 926.984C722.402 929.504 756.682 932.574 790.871 931.841C821.96 931.199 852.935 927.857 883.445 921.852C943.252 910.031 1002.6 895.598 1062.18 882.081C1091.55 875.391 1121.02 868.93 1150.22 861.416C1177.35 854.451 1204.16 846.295 1231.1 838.506C1235.92 837.085 1240.64 835.207 1246.37 833.328C1255.03 830.946 1262.77 828.975 1270.29 826.455C1285.6 821.278 1300.81 815.825 1316.12 810.464C1316.12 810.464 1316.12 810.464 1316.53 810.464C1318 809.96 1319.1 809.502 1320.15 809.089C1320.15 809.089 1320.15 809.089 1320.56 809.089C1322.3 808.585 1323.68 808.173 1325.15 807.715L1325.74 807.44L1326.25 807.211C1357.41 797.268 1388.57 787.187 1419.78 777.428C1454.61 766.568 1489.4 755.709 1524.41 745.354C1536.58 742.271 1548.92 739.84 1561.35 738.068C1578.67 737.656 1594.85 737.335 1610.98 736.648C1614.21 736.185 1617.37 735.37 1620.42 734.22C1647.14 726.247 1673.81 718.137 1700.58 710.347C1722.16 704.601 1744.83 704.271 1766.57 709.385C1785.22 713.188 1803.78 717.862 1822.67 720.107C1829.79 720.751 1836.96 719.718 1843.62 717.093C1850.27 714.467 1856.22 710.321 1860.98 704.986C1871.93 693.99 1881.97 681.252 1894.85 673.141C1914.14 660.908 1936.64 661.824 1959.01 664.848C1990.13 669.018 2012.4 686.475 2030.73 710.668C2051.54 737.931 2072.85 764.873 2093.15 792.503C2115.15 822.423 2121.56 856.651 2117.8 893.077C2112.86 941.647 2089.25 980.594 2055.34 1013.81C2035.4 1033.38 2009.97 1042.95 1982.65 1047.9C1956.17 1052.74 1929.02 1052.6 1902.59 1047.49C1916.66 1043.92 1931.23 1040.34 1945.9 1037.14C1980.17 1029.79 2012.39 1014.92 2040.22 993.607C2059.97 978.486 2071.79 958.417 2080.13 935.644C2085.26 920.037 2088.1 903.771 2088.57 887.35C2090.29 867.209 2088.29 846.922 2082.65 827.509C2079.45 817.337 2073.9 807.944 2071.01 797.726C2064.28 774.037 2048.1 756.259 2033.89 737.381C2010.52 706.453 1978.39 690.828 1940.08 687.437C1932.15 686.75 1924.13 686.475 1916.16 686.2C1914.7 686.475 1913.31 687.002 1912.03 687.758C1912.98 688.865 1914.05 689.85 1915.24 690.691C1918.54 692.569 1921.93 694.264 1925.05 696.372C1922.62 697.151 1920.46 697.472 1918.27 697.976C1899.02 702.558 1883.07 713.601 1867.03 724.414C1854.84 732.616 1842.74 741.322 1826.84 739.764C1810.93 738.206 1794.76 736.465 1778.53 734.953C1771.2 734.22 1763.87 733.807 1756.58 733.212L1756.35 734.907L1759.15 735.777C1793.07 745.187 1825.19 760.21 1854.15 780.223C1878.59 797.76 1900.06 819.091 1917.76 843.409C1929.2 859.628 1937.67 877.748 1942.78 896.926C1952.22 929.917 1948.28 960.708 1926.7 988.566C1924.13 991.82 1921.7 995.164 1919.18 998.463H1918.91C1918.06 998.569 1917.23 998.834 1916.48 999.242Z" fill="#A1F498"/>
<path d="M934.04 21.5816C959.424 17.0342 985.085 14.2022 1010.85 13.1049C1061.99 11.4554 1111.08 19.3364 1156.91 42.7505C1188.99 59.154 1216.12 81.56 1233.67 113.909C1247.54 138.247 1253.41 166.33 1250.44 194.186C1247.6 219.799 1238.8 242.571 1220.47 261.037C1193.8 287.842 1157.82 289.766 1128.22 266.077C1106.4 248.62 1092.79 225.206 1081.29 200.325C1070.66 177.415 1060.39 154.047 1049.21 131.595C1042.24 117.758 1031.96 105.858 1019.28 96.9555C1007 88.1581 993.572 87.4708 984.223 96.1766C979.9 99.9884 976.745 104.946 975.123 110.477C973.5 116.007 973.478 121.883 975.057 127.426C978.683 139.566 983.014 151.484 988.027 163.12C997.789 187.725 996.368 210.635 978.036 230.933C965.32 245.229 947.746 254.292 928.724 256.363C917.678 257.983 906.41 257.121 895.74 253.84C885.069 250.558 875.264 244.94 867.038 237.394C851.411 223.648 844.124 205.32 840.182 185.617C837.479 172.375 835.187 158.996 832.208 145.845C828.496 129.35 815.206 117.483 793.895 120.186C777.944 121.916 762.262 125.578 747.195 131.091C750.842 126.464 754.744 122.043 758.882 117.849C760.577 116.108 763.144 114.596 763.465 112.58C766.581 101.492 775.518 96.9097 784.821 92.9234C808.5 83.5987 831.203 71.9653 852.602 58.1918C866.351 49.0278 880.924 40.8718 895.681 32.3035C908.88 28.7295 921.346 25.1556 934.04 21.5816Z" fill="#8DEFD4"/>
<path d="M895.271 32.3027C881.018 40.8711 866.352 48.7979 852.604 58.191C831.205 71.9646 808.502 83.5979 784.823 92.9226C775.657 96.9089 766.491 101.491 763.466 112.579C762.916 114.595 760.35 116.107 758.883 117.849C754.805 122.156 750.726 126.417 746.693 131.228C730.469 138.422 718.233 150.885 704.988 161.744C671.396 189.236 645.411 223.51 620.8 258.928C589.821 302.029 561.918 347.258 537.3 394.281C522.235 423.189 512.428 454.544 508.336 486.883C506.968 501.519 506.402 516.218 506.64 530.916C507.209 535.638 508.411 540.261 510.215 544.662C514.427 563.318 524.829 580 539.729 591.994L541.058 577.744C541.608 583.609 539.958 591.811 543.212 594.926C549.872 601.146 557.89 605.727 566.63 608.306C597.428 617.47 644.219 604.549 660.534 562.486C669.7 538.843 678.178 514.971 687.527 491.373C693.21 477.032 700.405 463.286 713.008 453.572C728.499 441.613 745.96 437.947 763.879 446.195C780.927 454.076 786.793 469.563 788.214 487.753C789.91 512.267 779.965 532.84 767.82 552.91C758.654 567.938 749.992 583.013 746.097 600.654C740.093 627.825 761.496 651.514 785.739 655.271C818.415 660.403 865.527 640.701 885.234 604.228C898.938 578.886 906.887 550.836 908.515 522.073C909.752 502.095 909.844 481.98 911.357 462.003C913.556 432.999 917.543 404.224 935.233 379.527C952.923 354.83 978.359 346.17 1007.55 350.523C1045.5 356.158 1071.71 379.756 1092.06 410.593C1113.15 442.162 1122.99 479.92 1119.97 517.766C1117.12 550.793 1109.92 583.3 1098.57 614.446C1091.58 633.186 1086.18 652.484 1082.44 672.133C1076.71 707.827 1088.76 742.833 1122.77 758.779C1148.61 770.875 1187.29 766.018 1207.32 746.087C1222.58 730.92 1232.02 708.514 1220.61 683.771C1214.23 670.57 1209.21 656.753 1205.62 642.533C1203.25 632.232 1202.96 621.558 1204.79 611.145C1206.62 600.732 1210.52 590.791 1216.26 581.914C1234.59 552.222 1273.73 552.589 1294.17 582.372C1300.54 591.44 1304.69 601.88 1306.28 612.848C1307.88 623.817 1306.86 635.006 1303.33 645.512C1301.36 652.11 1299.76 658.845 1297.97 665.489C1297.13 668.755 1297.14 672.179 1297.99 675.441C1298.84 678.703 1300.5 681.696 1302.83 684.138C1307.03 689.23 1312.29 693.352 1318.24 696.223C1324.19 699.094 1330.69 700.645 1337.29 700.771C1356.9 701.523 1376.5 699.047 1395.31 693.439C1403.71 691.043 1411.48 686.828 1418.07 681.096C1424.66 675.363 1429.91 668.252 1433.44 660.266C1441.95 641.128 1447.01 620.636 1448.38 599.738C1451.82 564.273 1442.56 531.466 1428.63 499.438C1419.74 480.169 1414.76 459.333 1413.96 438.13C1413.55 414.716 1418.96 392.31 1434.36 373.982C1452.69 352.126 1479.87 347.315 1507 361.153C1531.33 373.616 1546.04 394.372 1555.67 419.253C1561.85 435.244 1566.76 451.922 1574.82 466.86C1591 497.055 1619.19 510.205 1651.36 517.262C1683.53 524.318 1716.89 492.84 1718.41 464.019C1719.14 449.815 1713 437.122 1705.48 425.347C1694.71 408.531 1678.72 397.488 1662.27 387.041C1653.1 381.176 1643.57 375.815 1634.22 370.134C1628.49 366.697 1626.29 360.97 1628.67 356.754C1629.36 355.585 1630.28 354.572 1631.37 353.78C1632.47 352.987 1633.72 352.433 1635.05 352.153C1636.37 351.872 1637.74 351.872 1639.07 352.151C1640.39 352.431 1641.64 352.984 1642.74 353.776C1667.4 367.751 1692.38 381.497 1711.49 403.078C1726.83 419.217 1735.78 440.392 1736.65 462.644C1737.01 479.735 1730.05 493.664 1719.64 506.448C1709.86 518.075 1697.58 527.347 1683.71 533.573C1670.61 534.582 1658.09 535.177 1645.58 535.727C1631.38 530.274 1616.57 525.876 1603.01 519.14C1577.02 506.265 1560.25 484.684 1550.03 457.879C1545.08 444.774 1540.86 431.395 1535.36 418.474C1528.73 401.48 1516.4 387.312 1500.49 378.381C1474.82 363.994 1450.49 373.387 1439.12 401.841C1430.43 424.507 1430.31 449.568 1438.8 472.312C1444.81 490.274 1451.86 507.823 1458.19 525.647C1472.11 570.888 1470.02 619.544 1452.28 663.427C1447.23 676.398 1438.88 687.827 1428.06 696.586C1417.25 705.344 1404.33 711.13 1390.59 713.371C1372.92 716.811 1354.97 718.682 1336.97 718.961C1327.51 719.088 1318.14 716.994 1309.64 712.849C1301.13 708.703 1293.71 702.62 1287.98 695.089C1276.25 680.564 1277.85 664.39 1282.89 648.169C1286.76 638.193 1288.46 627.511 1287.89 616.828C1286.89 604.69 1281.28 593.395 1272.21 585.258C1269.18 582.499 1265.54 580.492 1261.59 579.403C1257.64 578.314 1253.48 578.172 1249.46 578.989C1245.45 579.805 1241.68 581.558 1238.46 584.104C1235.25 586.651 1232.68 589.919 1230.97 593.643C1219.1 616.141 1220.15 638.868 1230.65 661.686C1235.31 670.803 1239.09 680.347 1241.92 690.186C1249.12 719.923 1238.58 744.712 1215.89 763.498C1181.98 790.99 1121.94 794.381 1087.07 755.48C1074.72 741.244 1066.76 723.738 1064.15 705.078C1059.89 680.198 1065.07 656.371 1072.72 632.957C1082.3 603.586 1093.25 574.674 1098.52 544.02C1106.73 494.856 1100.08 449.036 1068 408.943C1052.6 389.836 1033.86 375.265 1009.11 369.63C995.678 366.176 981.445 367.789 969.128 374.162C956.811 380.535 947.274 391.22 942.337 404.178C934.9 423.203 930.687 443.334 929.871 463.744C928.267 490.823 927.901 518.086 924.189 544.937C919.606 579.806 907.644 612.43 881.888 638.135C860.251 659.454 831.602 672.188 801.275 673.966C789.709 675.356 777.981 673.689 767.261 669.13C756.541 664.571 747.205 657.281 740.185 647.986C723.32 626.955 722.449 603.174 732.898 579.256C740.231 562.578 749.901 547.182 758.471 530.824C766.17 516.345 771.899 501.408 769.378 484.363C767.774 473.641 763.833 464.614 752.834 461.453C747.669 459.873 742.173 459.712 736.924 460.985C731.675 462.259 726.865 464.921 722.999 468.692C712.55 478.36 707.142 491.19 702.193 504.111C694.081 525.28 686.703 546.77 678.132 567.755C663.33 604.411 635.328 623.243 596.74 628.238C578.271 631.001 559.404 627.638 543.028 618.661C524.376 604.594 506.365 591.169 497.749 569.084C496.466 565.877 494.771 562.761 493.166 559.599C490.652 545.614 488.968 531.492 488.125 517.307C487.901 477.493 496.641 438.139 513.698 402.162C545.984 334.217 586.561 270.532 634.503 212.559C642.569 202.753 651.093 193.314 660.122 183.371C660.771 182.988 661.333 182.473 661.772 181.859C661.772 181.859 661.772 181.859 662.092 181.859C662.483 181.477 662.822 181.046 663.101 180.576C663.101 180.576 663.101 180.576 663.421 180.576C663.823 180.204 664.163 179.771 664.43 179.293C664.43 179.293 664.43 179.293 664.796 179.293C665.161 178.901 665.484 178.471 665.759 178.01C665.759 178.01 665.759 178.01 666.171 178.01C667.055 176.801 667.852 175.53 668.554 174.207H668.829C669.092 174.102 669.326 173.935 669.509 173.719C669.693 173.504 669.821 173.247 669.883 172.97H670.158C670.581 172.624 670.938 172.205 671.212 171.733C671.212 171.733 671.212 171.733 671.533 171.733C671.918 171.363 672.256 170.947 672.541 170.496H672.862C673.26 170.12 673.599 169.688 673.87 169.213C673.87 169.213 673.87 169.213 674.191 169.213C674.582 168.831 674.921 168.4 675.199 167.93C675.199 167.93 675.199 167.93 675.52 167.93C675.918 167.572 676.258 167.155 676.529 166.693C676.529 166.693 676.528 166.693 676.849 166.693C677.25 166.321 677.591 165.888 677.858 165.41C677.858 165.41 677.858 165.41 678.178 165.41C678.568 165.015 678.921 164.586 679.232 164.127C679.232 164.127 679.232 164.127 679.553 164.127C679.925 163.745 680.262 163.331 680.561 162.89C680.561 162.89 680.561 162.89 680.882 162.89C681.28 162.514 681.62 162.082 681.891 161.607C681.891 161.607 681.891 161.607 682.211 161.607C682.613 161.235 682.953 160.802 683.22 160.324C683.22 160.324 683.22 160.324 683.54 160.324C683.931 159.942 684.27 159.511 684.549 159.041C684.549 159.041 684.549 159.041 684.869 159.041C685.266 158.669 685.62 158.254 685.923 157.804C685.923 157.804 685.923 157.804 686.244 157.804C686.628 157.416 686.966 156.985 687.252 156.521C687.252 156.521 687.253 156.521 687.573 156.521C687.96 156.136 688.299 155.705 688.582 155.238C688.582 155.238 688.582 155.238 688.902 155.238C689.293 154.856 689.632 154.425 689.911 153.955C689.911 153.955 689.911 153.955 690.231 153.955C690.628 153.583 690.982 153.168 691.285 152.718C691.285 152.718 691.285 152.718 691.606 152.718C691.991 152.347 692.329 151.932 692.614 151.481C692.614 151.481 692.615 151.481 692.935 151.481C693.345 151.117 693.687 150.682 693.944 150.198C693.944 150.198 693.944 150.198 694.264 150.198C694.666 149.825 695.006 149.392 695.273 148.915C695.273 148.915 695.273 148.915 695.639 148.915C696.002 148.508 696.338 148.08 696.647 147.632C696.647 147.632 696.647 147.632 696.968 147.632C697.353 147.261 697.691 146.846 697.976 146.395C697.976 146.395 697.977 146.395 698.297 146.395C698.695 146.037 699.035 145.619 699.306 145.157C699.306 145.157 699.306 145.157 699.626 145.157C700.023 144.786 700.377 144.371 700.68 143.92H701.001C701.399 143.562 701.739 143.145 702.009 142.683C702.009 142.683 702.009 142.683 702.33 142.683C702.727 142.312 703.081 141.897 703.384 141.446H703.659C703.917 141.345 704.147 141.185 704.33 140.978C704.514 140.771 704.645 140.523 704.713 140.255H705.217C707.831 138.134 710.325 135.87 712.688 133.473H713.192C721.853 127.196 730.011 120.873 738.169 114.595C738.169 114.595 738.169 114.595 738.489 114.595C738.914 114.276 739.298 113.907 739.635 113.496C739.938 113.35 740.263 113.257 740.597 113.221C741.224 112.841 741.757 112.324 742.156 111.709C759.983 99.6123 777.719 87.47 795.592 75.511C799.397 73.0874 803.398 70.9876 807.554 69.2337C808.615 68.8978 809.619 68.4034 810.533 67.7674C810.533 67.7674 810.533 67.7674 810.945 67.7674C811.742 67.3929 812.495 66.9319 813.191 66.3928C813.191 66.3928 813.191 66.3928 813.512 66.3928C813.94 66.0452 814.339 65.662 814.703 65.2473C815.006 65.1868 815.317 65.1868 815.62 65.2473C816.284 64.9636 816.89 64.5597 817.407 64.056C817.695 64.0064 817.99 64.0064 818.278 64.056C818.906 63.8008 819.469 63.4096 819.928 62.9105H820.523C821.334 62.5351 822.102 62.0743 822.815 61.5359H823.181C823.998 61.1713 824.767 60.7098 825.473 60.1613H825.885C826.687 59.7686 827.453 59.3087 828.177 58.7867H828.543C829.348 58.4185 830.116 57.9735 830.835 57.4579H831.247C832.058 57.0825 832.826 56.6217 833.539 56.0833H833.905C834.768 55.7262 835.584 55.2646 836.334 54.7087C836.622 54.6552 836.917 54.6552 837.205 54.7087C837.874 54.4544 838.482 54.0644 838.992 53.5632C839.326 53.5085 839.667 53.5085 840.001 53.5632C841.017 53.2868 841.978 52.8373 842.842 52.2344C842.842 52.2344 842.842 52.2344 843.255 52.2344C844.058 51.828 844.825 51.3528 845.546 50.814C845.546 50.814 845.546 50.814 845.958 50.814C846.769 50.4386 847.537 49.9778 848.25 49.4394C848.25 49.4394 848.25 49.4394 848.662 49.4394C849.471 49.0779 850.239 48.6325 850.954 48.1106H851.366C852.59 47.7034 853.784 47.2135 854.941 46.6444C854.941 46.6444 854.941 46.6444 855.399 46.6444C857.086 45.8412 858.723 44.9385 860.303 43.941H860.761C861.968 43.5481 863.147 43.0735 864.29 42.5206C864.29 42.5206 864.29 42.5206 864.703 42.5206C865.513 42.1452 866.281 41.6844 866.994 41.146C866.994 41.146 866.994 41.146 867.452 41.146C868.673 40.7306 869.866 40.2409 871.027 39.6798C871.027 39.6798 871.027 39.6798 871.439 39.6798C872.283 39.2839 873.095 38.8244 873.868 38.3052C874.185 38.2356 874.514 38.2356 874.831 38.3052C875.858 38.0402 876.833 37.6067 877.718 37.0222C877.718 37.0222 877.718 37.0222 878.268 37.0222C881.476 36.3807 884.18 35.556 886.93 35.1436C889.679 34.7312 892.475 32.5318 895.271 32.3027Z" fill="#A2F199"/>
<path d="M493.029 560.332C494.853 563.229 496.388 566.299 497.612 569.496C506.457 591.352 524.239 605.007 542.478 618.936C545.729 646.59 554.569 673.294 568.464 697.425C592.478 740.267 628.041 771.425 669.287 796.626C718.232 826.587 772.541 846.741 829.185 855.963C859.157 860.865 889.313 864.76 919.697 862.607C941.099 861.094 962.364 857.016 983.858 854.084C984.884 853.858 985.948 853.858 986.974 854.084C965.068 865.127 943.116 876.215 918.002 877.315C881.338 878.964 844.675 881.897 807.737 881.164C743.576 880.018 680.653 869.663 621.671 843.637C585.008 827.371 549.582 807.393 513.835 788.653C491.471 776.969 469.656 764.368 447.337 752.639C442.829 750.37 437.856 749.178 432.81 749.156C422.544 749.156 412.324 750.439 402.104 750.989C383.855 752.413 365.496 750.756 347.797 746.086C344.792 745.232 341.864 744.128 339.043 742.787C317.183 732.432 314.708 713.508 333.452 698.159C345.001 688.674 357.329 680.151 368.695 670.667C387.026 654.904 405.358 638.593 423.46 622.51C446.467 601.937 469.61 581.318 493.029 560.332Z" fill="#7D76D9"/>
<path d="M1645.45 536.323C1658.23 535.406 1670.75 534.811 1683.72 534.215C1703.65 538.522 1718.73 550.618 1733.26 563.081C1755.58 582.234 1777.11 602.303 1798.98 621.96C1806.63 628.833 1814.65 635.294 1821.89 642.671C1829.82 650.161 1836.87 658.522 1842.93 667.597C1844.68 670.609 1845.67 674.003 1845.83 677.485C1845.98 680.967 1845.29 684.434 1843.8 687.589C1842.32 690.743 1840.09 693.49 1837.31 695.595C1834.53 697.699 1831.29 699.098 1827.85 699.671C1811.64 701.832 1795.15 699.437 1780.23 692.752C1761.67 685.101 1741.94 680.67 1721.89 679.648C1713.86 679.182 1705.81 680.307 1698.22 682.956C1690.62 685.606 1683.62 689.729 1677.62 695.089C1670.7 701.045 1663.87 707.414 1656.63 712.73C1641.09 723.818 1623.86 724.78 1605.71 720.29C1562.31 709.522 1546.69 653.988 1577.21 623.701C1583.72 617.241 1589.67 610.276 1595.91 603.586C1605.48 592.997 1613.23 580.888 1618.82 567.755C1623.74 554.482 1633.16 543.357 1645.45 536.323Z" fill="#7D76D9"/>
<path d="M1341.56 171.962C1341.76 169.915 1341.68 167.849 1341.33 165.822C1336.74 150.61 1326.48 139.155 1316.53 127.425C1313.23 123.813 1310.35 119.831 1307.96 115.558C1306.65 113.498 1305.95 111.115 1305.92 108.676C1305.88 106.236 1306.53 103.836 1307.79 101.744C1309.04 99.6518 1310.86 97.9502 1313.02 96.8293C1315.19 95.7085 1317.63 95.2125 1320.06 95.397C1328.71 95.4083 1337.31 96.6109 1345.63 98.971C1373.13 107.127 1394.81 124.309 1412.96 146.257C1417.91 152.26 1423.54 157.712 1429.04 163.211C1442.47 176.323 1453.84 191.383 1462.77 207.885C1475.88 232.628 1479.13 257.554 1464.06 283.534C1462.45 285.184 1461.31 286.192 1460.34 287.337C1449.31 301.984 1433.88 312.711 1416.3 317.945C1397.6 323.214 1380.05 317.945 1370.47 301.175C1363.88 289.399 1359.24 276.633 1356.72 263.373C1352.51 239.868 1351.23 215.812 1348.06 192.077C1346.92 185.204 1348.15 177.232 1341.56 171.962Z" fill="#8DEFD4"/>
<path d="M1341.05 171.78C1348.15 177.233 1346.92 185.205 1347.83 192.078C1350.99 215.813 1352.42 239.868 1356.49 263.374C1359.08 276.648 1363.8 289.414 1370.47 301.176C1379.87 317.946 1397.42 323.215 1416.3 317.946C1433.94 312.747 1449.45 302.016 1460.53 287.338C1461.6 286.105 1462.82 284.998 1464.15 284.039C1472.12 297.785 1479.04 312.127 1479.5 328.439C1479.97 333.18 1479 337.954 1476.72 342.138C1474.44 346.322 1470.95 349.723 1466.71 351.898C1458.19 356.48 1450.31 353.548 1443.02 348.37C1423.91 334.945 1402 334.945 1380.05 335.632C1356.08 336.365 1332.07 340.214 1308.1 335.082C1294.15 332.677 1281.37 325.773 1271.71 315.426C1265.59 308.795 1262.06 300.184 1261.76 291.165C1261.47 282.146 1264.43 273.322 1270.11 266.307C1273.76 261.237 1278.01 256.622 1282.76 252.561C1286.17 249.666 1288.85 246.009 1290.58 241.886C1292.32 237.762 1293.06 233.288 1292.75 228.826C1292.75 219.662 1291.97 210.131 1291.6 200.784C1291.6 198.126 1291.6 195.423 1291.6 192.766C1292.24 170.497 1305.35 160.692 1326.52 166.694C1331.38 167.977 1335.92 169.947 1341.05 171.78Z" fill="#7D76D9"/>
<path d="M540.965 577.011C540.506 582.143 540.048 586.679 539.59 591.903C524.751 580.062 514.469 563.451 510.488 544.891C523.045 534.536 535.511 524.685 547.564 515.154C545.547 535.727 543.348 556.026 540.965 577.011Z" fill="#7D76D9"/>
<path d="M1388.21 1108.84C1395.22 1104.26 1401.68 1097.89 1409.43 1095.1C1428.93 1086.96 1449.72 1082.3 1470.84 1081.35C1478.12 1081.35 1485.46 1080.62 1493.38 1080.21C1463.32 1088.68 1432.71 1097.16 1402.05 1105.64C1400.76 1106 1399.53 1106.51 1397.46 1107.06C1396.18 1107.38 1394.92 1107.8 1393.71 1108.34C1393.71 1108.34 1393.71 1108.34 1393.16 1108.34C1391.09 1108.25 1389.63 1108.48 1388.21 1108.84Z" fill="#A2F199"/>
<path d="M183.501 743.566C178.459 746.682 173.418 749.798 167.919 752.73C178.473 739.482 191.946 728.85 207.286 721.664C184.371 750.531 163.565 778.893 149.129 811.609C152.938 800.498 157.359 789.607 162.373 778.985C168.606 767.026 176.397 756.075 183.867 743.795C184.333 743.248 184.733 742.648 185.059 742.008L184.601 742.237C184.324 742.355 184.08 742.537 183.889 742.768C183.698 742.999 183.565 743.273 183.501 743.566Z" fill="#A2F199"/>
<path d="M1315.48 810.51C1300.81 815.871 1285.6 821.323 1270.29 826.501C1262.77 829.021 1255.03 831.083 1246.82 833.099C1269.1 825.523 1291.98 817.994 1315.48 810.51Z" fill="#CE5FC8"/>
<path d="M895.775 32.3029C892.475 32.3029 889.68 32.6236 886.93 33.0818C884.18 33.54 881.477 34.3189 878.223 34.9604C895.567 27.1258 914.214 22.5738 933.218 21.5352C921.363 25.1702 908.882 28.7594 895.775 32.3029Z" fill="#A5CFA8"/>
<path d="M512.781 1221.56C511.314 1228.16 509.573 1235.03 507.51 1241.81C504.898 1250.2 502.057 1258.54 498.895 1267.15C502.103 1253.63 505.677 1239.66 509.435 1225.91C510.246 1224.25 511.384 1222.77 512.781 1221.56Z" fill="#A5CFA8"/>
<path d="M1183.3 1203.92C1177.67 1196.22 1177.9 1193.47 1184.17 1186.74C1187.29 1183.44 1190.13 1179.91 1193.34 1176.43C1190.68 1183.3 1187.47 1190.17 1184.45 1197.14C1183.8 1199.35 1183.42 1201.62 1183.3 1203.92Z" fill="#A5CFA8"/>
<path d="M1703.7 1045.02C1705.03 1044.29 1706.49 1043.86 1708 1043.73H1784.13C1785.19 1043.82 1786.22 1044.13 1787.15 1044.65C1760.02 1045.02 1732.06 1045.06 1703.7 1045.02Z" fill="#A5CFA8"/>
<path d="M466.633 1172.72C480.382 1175.6 494.405 1178.76 508.337 1182.25C509.758 1182.57 510.674 1184.68 511.866 1186.46C498.805 1182.93 485.698 1178.99 472.545 1175.01C470.518 1174.4 468.541 1173.63 466.633 1172.72Z" fill="#A5CFA8"/>
<path d="M136.707 887.533C131.849 874.932 134.736 861.828 137.302 848.723C138.106 844.95 139.194 841.244 140.556 837.635C139.548 853.855 138.173 870.579 136.707 887.533Z" fill="#A5CFA8"/>
<path d="M1619.41 734.311C1616.62 735.576 1613.66 736.41 1610.61 736.785C1594.48 737.472 1578.53 737.793 1561.53 738.251C1566.44 737.139 1571.42 736.344 1576.43 735.868C1590.45 735.09 1604.66 734.769 1619.41 734.311Z" fill="#A5CFA8"/>
<path d="M1387.84 1108.84C1389.57 1108.41 1391.34 1108.1 1393.11 1107.93C1387.29 1113.75 1379.73 1118.7 1379.96 1129.28C1377.85 1118.01 1379.64 1112.83 1387.84 1108.84Z" fill="#CE5FC8"/>
<path d="M738.031 112.58C730.378 118.812 722.22 125.135 713.559 131.366C721.105 125.104 729.263 118.842 738.031 112.58Z" fill="#A5CFA8"/>
<path d="M682.442 1538.77C682.121 1527.59 682.121 1515.86 682.121 1503.81C682.35 1514.9 682.534 1526.63 682.442 1538.77Z" fill="#A5CFA8"/>
<path d="M712.414 131.412C710.291 133.87 707.943 136.125 705.402 138.148C707.525 135.69 709.873 133.435 712.414 131.412Z" fill="#A5CFA8"/>
<path d="M859.845 41.6055C858.465 42.7253 856.919 43.622 855.262 44.263C856.641 43.1432 858.187 42.2465 859.845 41.6055Z" fill="#A5CFA8"/>
<path d="M514.295 1214.23C514.368 1216.25 514.137 1218.28 513.608 1220.23C513.509 1218.21 513.742 1216.18 514.295 1214.23Z" fill="#A5CFA8"/>
<path d="M668.325 174.482C667.909 175.801 667.222 177.018 666.309 178.056C666.754 176.751 667.438 175.539 668.325 174.482Z" fill="#A5CFA8"/>
<path d="M1324.37 807.852C1323.04 808.383 1321.68 808.827 1320.29 809.18C1321.62 808.656 1322.98 808.212 1324.37 807.852Z" fill="#CE5FC8"/>
<path d="M461.223 1171.25C462.873 1171.2 464.518 1171.45 466.081 1171.98C464.429 1172.05 462.78 1171.8 461.223 1171.25Z" fill="#A5CFA8"/>
<path d="M1394.03 1108.11C1394.87 1107.52 1395.82 1107.1 1396.82 1106.87C1395.99 1107.48 1395.04 1107.9 1394.03 1108.11Z" fill="#CE5FC8"/>
<path d="M863.878 40.1836C862.939 40.8602 861.882 41.3573 860.762 41.6498C861.699 40.9686 862.756 40.4711 863.878 40.1836Z" fill="#A5CFA8"/>
<path d="M1319.47 809.182C1318.46 809.77 1317.38 810.232 1316.26 810.556C1317.26 809.959 1318.34 809.497 1319.47 809.182Z" fill="#CE5FC8"/>
<path d="M854.484 44.2168C853.538 44.8839 852.484 45.3801 851.367 45.683C852.304 45.0018 853.361 44.5043 854.484 44.2168Z" fill="#A5CFA8"/>
<path d="M491.515 1286.44C491.539 1287.66 491.238 1288.86 490.645 1289.92C490.64 1288.71 490.939 1287.51 491.515 1286.44Z" fill="#A5CFA8"/>
<path d="M870.569 37.5273C869.625 38.1859 868.57 38.6672 867.453 38.9478C868.398 38.2901 869.453 37.8088 870.569 37.5273Z" fill="#A5CFA8"/>
<path d="M498.207 1267.66C498.283 1268.9 498.064 1270.14 497.566 1271.28C497.489 1270.04 497.709 1268.79 498.207 1267.66Z" fill="#A5CFA8"/>
<path d="M830.422 54.9844C829.944 55.6064 829.289 56.0695 828.543 56.3132C829.032 55.7028 829.683 55.2423 830.422 54.9844Z" fill="#A5CFA8"/>
<path d="M827.765 56.3594C827.279 56.9934 826.605 57.4584 825.84 57.6882C826.34 57.0688 827.008 56.6073 827.765 56.3594Z" fill="#A5CFA8"/>
<path d="M825.106 57.6875C824.648 58.34 823.987 58.8232 823.227 59.0621C823.696 58.421 824.352 57.9408 825.106 57.6875Z" fill="#A5CFA8"/>
<path d="M822.402 59.0625C821.913 59.6729 821.262 60.1333 820.523 60.3913C821.002 59.7693 821.657 59.3061 822.402 59.0625Z" fill="#A5CFA8"/>
<path d="M833.128 53.7012C832.628 54.3205 831.96 54.782 831.203 55.03C831.689 54.3959 832.363 53.931 833.128 53.7012Z" fill="#A5CFA8"/>
<path d="M835.923 52.373C835.393 53.0011 834.692 53.4625 833.906 53.7018C834.433 53.0698 835.134 52.6074 835.923 52.373Z" fill="#A5CFA8"/>
<path d="M842.429 49.5781C841.842 50.2498 841.055 50.7155 840.184 50.9069C840.8 50.2711 841.575 49.8122 842.429 49.5781Z" fill="#A5CFA8"/>
<path d="M845.132 48.248C844.653 48.8991 843.978 49.3806 843.207 49.6226C843.686 48.9716 844.36 48.4901 845.132 48.248Z" fill="#A5CFA8"/>
<path d="M873.457 36.2441C872.903 36.8662 872.19 37.3256 871.395 37.5729C871.624 37.1147 872.311 36.6565 873.457 36.2441Z" fill="#A5CFA8"/>
<path d="M1198.29 1175.01C1198.93 1174.38 1199.72 1173.94 1200.58 1173.72C1199.93 1174.32 1199.15 1174.76 1198.29 1175.01Z" fill="#A5CFA8"/>
<path d="M1194.44 1176.43C1195.03 1175.77 1195.79 1175.29 1196.64 1175.05C1196.04 1175.7 1195.28 1176.17 1194.44 1176.43Z" fill="#A5CFA8"/>
<path d="M877.261 34.9141C876.651 35.5484 875.872 35.9938 875.016 36.197C875.625 35.5627 876.405 35.1173 877.261 34.9141Z" fill="#A5CFA8"/>
<path d="M496.832 1272.65C496.863 1273.56 496.658 1274.46 496.236 1275.26C496.135 1274.35 496.345 1273.43 496.832 1272.65Z" fill="#A5CFA8"/>
<path d="M495.457 1276.64C495.544 1277.53 495.335 1278.44 494.861 1279.2C494.759 1278.3 494.97 1277.4 495.457 1276.64Z" fill="#A5CFA8"/>
<path d="M494.221 1279.66C494.22 1280.48 493.999 1281.29 493.579 1282C493.522 1281.17 493.748 1280.34 494.221 1279.66Z" fill="#A5CFA8"/>
<path d="M492.8 1283.42C492.881 1284.3 492.672 1285.19 492.204 1285.94C492.094 1285.05 492.305 1284.16 492.8 1283.42Z" fill="#A5CFA8"/>
<path d="M848.022 46.9648C847.523 47.5842 846.854 48.0457 846.098 48.2936C846.57 47.6448 847.248 47.1761 848.022 46.9648Z" fill="#A5CFA8"/>
<path d="M850.542 45.8203C850.056 46.4544 849.382 46.9193 848.617 47.1491C849.117 46.5297 849.786 46.0683 850.542 45.8203Z" fill="#A5CFA8"/>
<path d="M812.961 64.1484C812.503 64.801 811.843 65.2842 811.082 65.523C811.357 65.2481 811.907 64.7899 812.961 64.1484Z" fill="#A5CFA8"/>
<path d="M866.581 38.9473C866.088 39.5643 865.416 40.0127 864.656 40.2302C865.149 39.6131 865.822 39.1648 866.581 38.9473Z" fill="#A5CFA8"/>
<path d="M810.303 65.6602C809.753 66.318 809.019 66.7966 808.195 67.0348C808.756 66.3888 809.486 65.9127 810.303 65.6602Z" fill="#A5CFA8"/>
<path d="M838.578 51.1348C838.578 51.4097 838.212 51.7762 837.387 52.1886C837.387 51.9137 837.799 51.5471 838.578 51.1348Z" fill="#A5CFA8"/>
<path d="M691.102 151.527C691.102 151.802 691.102 152.169 690.414 152.673C690.323 152.398 690.552 152.031 691.102 151.527Z" fill="#A5CFA8"/>
<path d="M689.772 152.855C689.772 153.13 689.772 153.497 689.039 154.001C688.947 153.726 689.177 153.359 689.772 152.855Z" fill="#A5CFA8"/>
<path d="M688.444 154.184C688.444 154.459 688.444 154.871 687.711 155.329C687.619 155.054 687.848 154.688 688.444 154.184Z" fill="#A5CFA8"/>
<path d="M661.589 182.318C661.589 182.639 661.589 183.006 660.672 183.51C660.626 183.281 660.947 182.822 661.589 182.318Z" fill="#A5CFA8"/>
<path d="M662.964 180.943C662.964 181.264 662.964 181.631 662.23 182.135C662.139 181.86 662.368 181.447 662.964 180.943Z" fill="#A5CFA8"/>
<path d="M664.293 179.615C664.293 179.89 664.293 180.303 663.605 180.807C663.468 180.486 663.697 180.073 664.293 179.615Z" fill="#A5CFA8"/>
<path d="M665.621 178.285C665.621 178.56 665.621 178.927 664.934 179.431C664.705 179.156 665.025 178.698 665.621 178.285Z" fill="#A5CFA8"/>
<path d="M669.745 173.062C669.99 173.368 669.761 173.735 669.058 174.162C668.844 173.857 669.073 173.49 669.745 173.062Z" fill="#A5CFA8"/>
<path d="M671.075 171.688C671.075 171.917 671.075 172.329 670.342 172.787C670.296 172.558 670.525 172.192 671.075 171.688Z" fill="#A5CFA8"/>
<path d="M672.403 170.312C672.403 170.587 672.403 170.954 671.67 171.458C671.624 171.229 671.853 170.817 672.403 170.312Z" fill="#A5CFA8"/>
<path d="M673.871 168.984C673.871 169.259 673.871 169.626 673.138 170.13C672.909 169.855 673.184 169.534 673.871 168.984Z" fill="#A5CFA8"/>
<path d="M675.063 167.656C675.063 167.656 675.063 168.252 674.33 168.756C674.284 168.527 674.513 168.114 675.063 167.656Z" fill="#A5CFA8"/>
<path d="M676.391 166.281C676.391 166.556 676.391 166.923 675.658 167.427C675.612 167.152 675.841 166.785 676.391 166.281Z" fill="#A5CFA8"/>
<path d="M677.719 164.951C677.719 164.951 677.719 165.593 676.986 166.097C676.94 165.822 677.17 165.409 677.719 164.951Z" fill="#A5CFA8"/>
<path d="M679.051 163.578C679.051 163.853 679.051 164.22 678.363 164.724C678.455 164.495 678.455 164.082 679.051 163.578Z" fill="#A5CFA8"/>
<path d="M680.379 162.248C680.379 162.523 680.379 162.89 679.692 163.394C679.6 163.119 679.829 162.752 680.379 162.248Z" fill="#A5CFA8"/>
<path d="M681.753 160.92C681.753 161.195 681.753 161.561 681.02 162.065C680.928 161.791 681.157 161.378 681.753 160.92Z" fill="#A5CFA8"/>
<path d="M683.037 159.545C683.037 159.82 683.037 160.232 682.304 160.69C681.571 161.149 682.487 160.049 683.037 159.545Z" fill="#A5CFA8"/>
<path d="M684.409 158.217C684.409 158.492 684.409 158.858 683.676 159.362C683.584 159.087 683.813 158.721 684.409 158.217Z" fill="#A5CFA8"/>
<path d="M685.738 156.887C685.738 157.162 685.738 157.528 685.051 158.032C684.959 157.757 685.188 157.345 685.738 156.887Z" fill="#A5CFA8"/>
<path d="M687.07 155.514C687.07 155.834 687.07 156.201 686.383 156.705C686.291 156.43 686.52 156.018 687.07 155.514Z" fill="#A5CFA8"/>
<path d="M817.179 61.8105C817.179 62.0855 816.812 62.452 815.988 62.9102C815.942 62.6353 816.4 62.2687 817.179 61.8105Z" fill="#A5CFA8"/>
<path d="M819.744 60.4824C819.744 60.7573 819.378 61.1239 818.644 61.5821C818.599 61.2614 818.965 60.9406 819.744 60.4824Z" fill="#A5CFA8"/>
<path d="M814.521 63.1855C814.521 63.4605 814.292 63.827 813.651 64.2394C813.009 64.6518 813.88 63.6437 814.521 63.1855Z" fill="#A5CFA8"/>
<path d="M741.973 109.969C741.973 110.244 741.698 110.702 740.965 111.298C740.919 110.794 741.286 110.427 741.973 109.969Z" fill="#A5CFA8"/>
<path d="M739.497 111.434C739.497 111.709 739.497 112.029 738.626 112.487C738.58 112.258 738.855 111.892 739.497 111.434Z" fill="#A5CFA8"/>
<path d="M704.621 138.285C704.621 138.606 704.62 138.972 703.841 139.339C703.658 138.972 703.887 138.652 704.621 138.285Z" fill="#A5CFA8"/>
<path d="M703.247 139.568C703.247 139.797 703.247 140.164 702.513 140.668C702.422 140.393 702.697 140.027 703.247 139.568Z" fill="#A5CFA8"/>
<path d="M701.871 140.896C701.871 141.126 701.871 141.492 701.138 141.996C701.092 141.721 701.367 141.355 701.871 140.896Z" fill="#A5CFA8"/>
<path d="M700.542 142.043C700.542 142.318 700.542 142.684 699.809 143.188C699.717 143.051 699.946 142.684 700.542 142.043Z" fill="#A5CFA8"/>
<path d="M699.169 143.508C699.169 143.783 699.169 144.149 698.435 144.653C698.39 144.378 698.619 144.012 699.169 143.508Z" fill="#A5CFA8"/>
<path d="M697.84 144.838C697.84 145.113 697.84 145.479 697.107 145.983C697.016 145.708 697.29 145.342 697.84 144.838Z" fill="#A5CFA8"/>
<path d="M696.511 146.166C696.511 146.441 696.511 146.808 695.777 147.312C695.686 147.082 695.915 146.624 696.511 146.166Z" fill="#A5CFA8"/>
<path d="M695.135 147.494C695.135 147.769 695.135 148.181 694.402 148.64C693.669 149.098 694.585 147.998 695.135 147.494Z" fill="#A5CFA8"/>
<path d="M693.807 148.869C693.807 149.144 693.807 149.511 693.074 150.015C692.983 149.74 693.212 149.327 693.807 148.869Z" fill="#A5CFA8"/>
<path d="M692.43 150.197C692.43 150.472 692.43 150.839 691.742 151.343C691.651 151.205 691.88 150.655 692.43 150.197Z" fill="#A5CFA8"/>
<path d="M946.185 2048.15C919.192 1976.72 918.687 1940.48 925.608 1878.3C929.549 1884.81 932.757 1889.8 935.69 1894.98C947.368 1915.28 961.908 1933.8 978.861 1949.96C1004.23 1974.04 1032.3 1995.12 1062.5 2012.78C1099.39 2035.05 1139.83 2050.82 1182.07 2059.38C1200.81 2062.93 1219.73 2065.41 1238.76 2066.8C1256.08 2068.35 1273.49 2068.78 1290.87 2068.09C1330.78 2066.25 1368.77 2057.13 1402.18 2033.77C1410.3 2028.04 1417.45 2020.98 1425.1 2014.43C1423.08 2046.85 1418.3 2079.04 1410.8 2110.65C1409.65 2115.51 1407.91 2116.52 1402.5 2115.23C1382.57 2110.97 1362.54 2106.89 1342.33 2104.37C1325.09 2102.51 1307.75 2101.56 1290.41 2101.53C1258.81 2100.96 1227.27 2104.61 1196.64 2112.39C1159.79 2121.8 1123.22 2132.13 1086.93 2143.37C1064.95 2149.47 1044.19 2159.32 1025.56 2172.46C1022.22 2174.98 1019.74 2173.79 1017.54 2171.09C1009.57 2161.51 1001.13 2152.3 993.893 2142.22C973.639 2113.27 957.578 2081.6 946.185 2048.15Z" fill="#CE5FC8"/>
<path d="M615.941 928.816C628.773 932.894 641.605 937.064 654.483 940.959C658.684 942.348 663.014 943.315 667.407 943.845C677.81 944.808 681.156 951.772 682.53 961.119C674.602 962.082 666.857 961.12 660.028 963.181C628.676 972.379 601.625 992.44 583.723 1019.77C564.2 1049.09 566.995 1080.62 591.376 1105.91C615.757 1131.2 646.371 1146.19 679.918 1154.48C701.687 1159.84 724.235 1161.99 746.462 1165.39C755.628 1166.76 765.114 1167.49 774.463 1168.55C757.507 1157.46 740.321 1147.47 728.634 1130.7C732.352 1128.79 735.841 1126.47 739.038 1123.78C746.37 1116.17 753.153 1108.02 760.806 1100.27C774.234 1106.05 786.517 1113.75 799.853 1116.72C825.183 1122.48 850.853 1126.63 876.708 1129.14C905.214 1131.84 934.04 1132.07 962.729 1132.9C974.92 1133.22 987.202 1132.35 999.392 1132.03C1003.47 1140.18 1007.55 1148.34 1011.67 1156.95C994.764 1159.93 977.853 1162.91 960.85 1164.74C929.87 1168.13 898.843 1171.39 867.771 1173.63C843.161 1175.42 818.368 1176.29 793.666 1176.34C760.073 1176.34 726.435 1175.92 692.842 1174.59C649.35 1172.81 606.592 1164.97 563.925 1156.91C558.242 1155.81 552.468 1155.49 546.006 1154.3C540.781 1152.28 536.336 1150.72 531.707 1148.8C529.095 1146.05 526.574 1143.85 524.374 1141.33C506.593 1121.31 490.278 1100.55 489.773 1071.91C498.509 1073.04 507.321 1073.47 516.125 1073.2C542.202 1070.49 558.838 1054.87 568.324 1031.32C576.94 1010.06 575.107 988.245 570.433 966.389C569.813 963.375 569.536 960.301 569.608 957.225C585.464 947.144 600.542 937.98 615.941 928.816Z" fill="#C251CD"/>
<path d="M1180.6 1111.18C1191.42 1108.89 1202.37 1108.11 1212.68 1105.13C1267.04 1089.46 1319.51 1069.53 1366.53 1037.14C1388.56 1022.46 1407.11 1003.15 1420.88 980.549C1428.86 967.261 1428.4 953.698 1426.75 939.311C1424.55 920.204 1412.18 907.237 1400.76 893.491C1379.87 868.885 1351.87 857.064 1320.61 851.978C1306.17 849.641 1291.69 847.396 1276.66 845.15C1296.96 838.048 1317.91 830.855 1338.58 823.844C1347.74 820.82 1356.91 818.208 1366.94 815.551C1394.75 828.056 1419.43 846.569 1439.22 869.756C1443.8 874.979 1448.11 880.157 1452.55 885.335C1451.04 894.04 1449.07 902.7 1447.97 911.452C1445.72 930.376 1446.14 949.253 1459.52 964.42C1465.25 970.881 1473.27 975.142 1480.74 981.282C1478.92 1000.73 1471.89 1019.33 1460.39 1035.12C1454.2 1044.28 1447.19 1052.44 1440.59 1061.1C1440.59 1061.1 1440.59 1061.1 1440.27 1061.1C1439.67 1061.37 1439.17 1061.8 1438.8 1062.34C1437.53 1063.13 1436.32 1064.02 1435.18 1064.99C1435.18 1064.99 1435.18 1064.99 1434.77 1064.99C1433.53 1065.31 1432.31 1065.74 1431.15 1066.28H1430.69C1429.52 1066.34 1428.36 1066.48 1427.21 1066.69L1399.07 1075.53C1397.1 1076.27 1396.04 1076.72 1394.94 1077.18H1394.58C1393.34 1077.54 1392.13 1078 1390.96 1078.56H1390.5C1375.1 1083.46 1360.25 1088.36 1345.4 1093.31H1344.99C1343.57 1093.63 1342.19 1094.09 1340.87 1094.69C1340.57 1094.61 1340.25 1094.61 1339.95 1094.69C1338.16 1095.24 1337.02 1095.69 1335.87 1096.15C1318.78 1100.73 1301.77 1106.14 1284.5 1110.22C1250.31 1118.28 1216.03 1125.71 1181.79 1133.4C1180.28 1133.64 1178.75 1133.76 1177.21 1133.77C1177.99 1126.26 1179.14 1118.97 1180.6 1111.18Z" fill="#C251CD"/>
<path d="M1018.6 1408.28L1034 1334.19C1042.43 1347.93 1050.04 1363.01 1060.44 1376.02C1077.67 1397.56 1098.02 1415.61 1125.88 1423.17C1154.94 1431.05 1189.22 1419.96 1204.21 1395.31C1209.34 1386.88 1210.99 1376.3 1213.97 1366.58C1214.8 1363.02 1215.38 1359.41 1215.71 1355.77C1226.66 1381.84 1237.06 1406.63 1247.51 1431.42C1252.1 1442.69 1257.23 1453.87 1262 1465.14C1262.51 1466.77 1262.88 1468.44 1263.1 1470.14C1261.58 1469.64 1260.12 1469 1258.74 1468.21C1233.48 1450.09 1203.86 1439.02 1172.9 1436.14C1126.8 1432.33 1086.1 1446.13 1049.17 1473.07C1027.08 1489.7 1007.73 1509.68 991.787 1532.27C991.192 1533.09 990.504 1533.92 989.863 1534.7L988.121 1534.01C998.295 1492.22 1008.42 1450.52 1018.6 1408.28Z" fill="#CE5EC7"/>
<path d="M479.691 851.793C488.036 863.562 492.169 877.799 491.423 892.206C452.652 914.704 423.413 944.762 405.631 985.45C395.195 1008.69 391.556 1034.41 395.136 1059.63C398.654 1080.74 406.621 1100.86 418.509 1118.65C408.793 1115.12 398.94 1111.91 389.408 1107.93C369.93 1099.86 350.682 1091.39 331.067 1082.18C327.034 1070.17 322.589 1059.27 319.793 1047.77C316.556 1036.46 314.724 1024.79 314.34 1013.03C314.821 990.03 320.393 967.418 330.655 946.824C350.361 905.586 384 880.293 426.209 865.814C443.624 859.857 461.864 856.375 479.691 851.793Z" fill="#C251CD"/>
<path d="M277.081 987.972C279.418 995.165 280.656 1002.45 282.993 1009.32C291.039 1033.65 303.124 1056.45 318.74 1076.77C310.994 1072.88 302.791 1068.94 295 1064.31C269.428 1048.91 245.138 1031.78 228.044 1006.76C216.541 989.942 203.48 973.584 200.546 952.507C199.401 944.397 199.767 936.058 198.988 927.489C199.401 885.839 219.107 856.56 255.725 838.507C258.778 837.83 261.975 838.39 264.615 840.065C265.44 840.477 265.303 844.922 264.249 846.709C259.07 855.277 253.8 863.845 247.842 871.864C237.989 885.06 229.51 898.898 227.265 915.53C224.259 932.62 227.513 950.221 236.431 965.107C240.673 972.088 246.641 977.858 253.761 981.862C260.881 985.867 268.912 987.971 277.081 987.972Z" fill="#C251CD"/>
<path d="M450.637 1129.88C465.348 1133.27 480.288 1136.98 495.595 1141.06C493.112 1142.29 490.343 1142.85 487.575 1142.66C475.064 1139.45 462.002 1137.71 450.637 1129.88Z" fill="#A2F199"/>
<path d="M497.566 1141.97C508.474 1144.17 519.702 1146.55 531.48 1149.26C536.248 1150.65 540.931 1152.31 545.504 1154.25C529.28 1152.33 512.873 1150.08 497.566 1141.97Z" fill="#A2F199"/>
<path d="M1543.25 979.769C1549.07 976.149 1555.26 972.988 1560.66 968.818C1581.38 953.056 1588.62 931.52 1585.69 906.365C1581.42 869.388 1560.94 841.851 1533.85 818.208C1528.56 813.764 1523.56 808.989 1518.87 803.912C1511.31 795.527 1512.22 786.088 1522.53 781.414C1532.63 777.613 1543.11 774.939 1553.79 773.441C1562.31 779.948 1569.78 786.317 1577.8 791.769C1604.6 809.923 1626.3 834.623 1640.86 863.524C1658.42 899.217 1657.36 936.561 1647.56 974.408C1643.43 990.445 1633.3 1002.91 1625.7 1016.93C1613.37 1019.59 1600.99 1022.11 1588.76 1024.95C1561.72 1031.06 1534.72 1037.38 1507.78 1043.92C1506.13 1044.33 1504.61 1045.47 1502.05 1046.25C1500.15 1046.04 1498.32 1045.46 1496.64 1044.56C1504.39 1037.14 1512.36 1030.58 1519.14 1022.98C1530.22 1010.98 1538.19 996.464 1542.38 980.685C1543.07 980.548 1543.25 980.135 1543.25 979.769Z" fill="#C350CD"/>
<path d="M1699.57 1014.45C1704.15 996.127 1710.16 978.394 1713.32 960.158C1719.58 924.736 1716.53 888.296 1704.47 854.405C1693 822.927 1674.95 794.25 1651.54 770.28C1648.38 766.935 1645.67 763.132 1642.38 759.1C1655.48 753.055 1670.23 751.602 1684.26 754.976C1717.17 762.995 1737.06 782.972 1746.22 814.542C1750.81 830.442 1746.68 846.341 1742.88 861.966C1739.53 875.712 1735.09 889.458 1733.12 903.524C1729.45 929.871 1735.68 953.377 1758.41 969.78C1764.05 973.858 1771.15 975.92 1777.52 979.769C1775 991.27 1772.48 1001.99 1769.41 1012.85C1760.25 1013.49 1751.77 1013.95 1743.2 1014.45C1731.38 1014.78 1719.51 1015.19 1707.64 1015.46C1704.92 1015.39 1702.22 1015.05 1699.57 1014.45Z" fill="#C251CD"/>
<path d="M1830.09 789.434C1831.57 789.659 1833 790.091 1834.35 790.717C1869.87 814.406 1899.16 843.822 1916.85 883.319C1926.52 904.946 1930.96 927.581 1924.22 950.949C1916.89 976.288 1898.24 991.775 1876.1 1003.87C1872.02 1006.12 1867.67 1007.9 1862.35 1010.15C1859.66 1010.7 1856.94 1011.1 1854.2 1011.34C1845.35 1011.57 1836.51 1011.61 1827.66 1011.75C1826.89 1011.69 1826.14 1011.52 1825.42 1011.25C1825.32 1011.19 1825.24 1011.1 1825.19 1011C1825.14 1010.9 1825.11 1010.79 1825.11 1010.68C1825.11 1010.56 1825.14 1010.45 1825.19 1010.35C1825.24 1010.25 1825.32 1010.17 1825.42 1010.1C1845.79 993.226 1860.01 970.096 1865.88 944.305C1869.88 925.569 1871.42 906.393 1870.47 887.259C1870.4 862.38 1863.15 838.05 1849.57 817.201C1843.7 807.624 1836.69 798.689 1830.09 789.434Z" fill="#C251CD"/>
<path d="M1743.8 1014.73C1751.95 1013.86 1760.52 1013.4 1770.19 1012.85C1788.8 1012.35 1806.22 1011.89 1823.68 1011.52C1822.79 1012.11 1821.79 1012.53 1820.74 1012.76C1796.55 1013.74 1772.33 1014.62 1748.1 1015.42C1746.64 1015.39 1745.19 1015.16 1743.8 1014.73Z" fill="#A5CFA8"/>
<path d="M1496.32 1044.7L1501.54 1046.16C1480.15 1052.48 1458.17 1058.72 1435.59 1064.86C1436.44 1063.64 1437.62 1062.68 1438.99 1062.11C1439.6 1061.85 1440.13 1061.42 1440.5 1060.87C1440.5 1060.87 1440.5 1060.87 1441 1060.87C1452.55 1057.94 1463.64 1055.05 1474.64 1051.71C1481.93 1050.06 1489.08 1047.35 1496.32 1044.7Z" fill="#A5CFA8"/>
<path d="M1345.82 1093.22C1360.12 1088.22 1374.96 1083.32 1390.36 1078.37C1381.43 1081.95 1372.03 1085.7 1362.36 1089C1356.92 1090.68 1351.4 1092.09 1345.82 1093.22Z" fill="#A2F199"/>
<path d="M1828.21 1012.07C1836.6 1011.61 1845.44 1011.57 1854.29 1011.34C1856.67 1011.34 1858.87 1010.7 1862.03 1010.33C1862.54 1010.83 1862.54 1011.38 1862.49 1012.3C1851.22 1012.62 1839.9 1012.62 1828.21 1012.07Z" fill="#A5CFA8"/>
<path d="M1336.24 1095.92C1337.29 1095.25 1338.45 1094.77 1339.68 1094.5C1338.6 1095.14 1337.45 1095.62 1336.24 1095.92Z" fill="#A2F199"/>
<path d="M1341.23 1094.5C1342.35 1093.82 1343.57 1093.33 1344.85 1093.08C1343.74 1093.76 1342.51 1094.24 1341.23 1094.5Z" fill="#A2F199"/>
<path d="M1431.47 1066.37C1432.4 1065.67 1433.48 1065.18 1434.63 1064.95C1433.68 1065.62 1432.6 1066.1 1431.47 1066.37Z" fill="#A5CFA8"/>
<path d="M1427.34 1066.92C1428.33 1066.44 1429.41 1066.2 1430.51 1066.23C1429.53 1066.72 1428.44 1066.96 1427.34 1066.92Z" fill="#A5CFA8"/>
<path d="M1395.31 1077.14C1396.3 1076.5 1397.38 1076.04 1398.52 1075.76C1397.53 1076.38 1396.45 1076.84 1395.31 1077.14Z" fill="#A2F199"/>
<path d="M1391.28 1078.47C1392.26 1077.81 1393.34 1077.33 1394.49 1077.04C1393.51 1077.71 1392.42 1078.19 1391.28 1078.47Z" fill="#A2F199"/>
<path d="M1916.84 999.242C1917.23 998.661 1917.82 998.238 1918.49 998.051C1918.31 998.509 1917.76 998.876 1916.84 999.242Z" fill="white"/>
<path d="M1825.14 1010.33C1825.14 1010.33 1825.14 1010.93 1825.14 1011.25C1825.14 1011.57 1824.68 1011.57 1824.13 1011.57C1823.58 1011.57 1823.72 1011.57 1823.86 1011.2C1823.99 1010.96 1824.17 1010.76 1824.39 1010.61C1824.62 1010.46 1824.87 1010.36 1825.14 1010.33Z" fill="#A5CFA8"/>
<path d="M1219.65 915.575C1241.71 909.69 1264.08 904.994 1286.65 901.508C1310.6 898.076 1335.04 901.657 1357 911.818C1370.98 918.553 1378.9 931.383 1376.02 946.595C1373.87 956.704 1367.91 965.598 1359.38 971.43C1335.83 988.75 1308.1 996.722 1281.47 1007.4C1275.28 1009.87 1269.1 1012.21 1262.54 1014.96C1261.03 1005.79 1260.57 996.402 1258.6 987.192C1253.1 962.037 1238.26 941.738 1223.5 921.394C1222.26 919.699 1221.02 917.866 1219.65 915.575Z" fill="#C3288A"/>
<path d="M890.961 958.829C870.109 966.343 848.661 972.575 828.175 980.822C802.216 991.567 778.925 1007.86 759.936 1028.57C752.053 1012.9 744.629 996.493 743.025 978.669C741.788 964.923 752.786 956.079 765.71 954.292C783.538 951.818 801.64 951.452 819.559 949.71C833.766 948.519 847.882 946.915 862.089 945.587C867.641 945.061 873.234 946.008 878.303 948.333C883.372 950.658 887.738 954.278 890.961 958.829Z" fill="#C251CD"/>
<path d="M423.642 823.432C382.926 836.392 344.189 854.893 308.52 878.416C308.886 870.993 308.015 862.608 310.628 855.506C314.411 845.54 319.563 836.148 325.935 827.601C329.819 822.006 335.121 817.543 341.297 814.668C347.473 811.794 354.302 810.612 361.085 811.244C380.665 811.942 400.086 815.019 418.922 820.408C420.669 821.114 422.27 822.139 423.642 823.432Z" fill="#C251CD"/>
<path d="M1091.28 913.33C1056.72 921.303 1021.99 928.863 987.294 936.24L938.715 946.962C935.599 939.677 939.448 932.346 948.477 929.597C958.192 926.664 968.229 924.602 978.128 922.22C1003.98 915.988 1029.96 910.077 1055.67 903.387C1062.75 901.415 1070.3 902.116 1076.89 905.358C1081.75 907.878 1086.33 910.49 1091.28 913.33Z" fill="#C251CD"/>
<path d="M1543.02 979.861C1543.25 980.136 1543.02 980.411 1542.52 980.686C1542.01 980.961 1542.42 980.09 1543.02 979.861Z" fill="#FEFEFE"/>
<path d="M183.5 743.567C183.5 743.109 183.867 742.788 184.554 742.422H184.829C184.77 742.686 184.653 742.935 184.487 743.149C184.32 743.362 184.109 743.537 183.867 743.659C183.729 743.659 183.5 743.613 183.5 743.567Z" fill="#8DEFD3"/>
<path d="M1440.13 1061.1C1440.13 1061.41 1439.9 1061.77 1439.44 1062.2C1439.21 1061.74 1439.21 1061.42 1440.13 1061.1Z" fill="#FEFEFE"/>
</svg>

